<?xml version="1.0" standalone="no"?>
<!DOCTYPE svg PUBLIC "-//W3C//DTD SVG 20010904//EN"
 "http://www.w3.org/TR/2001/REC-SVG-20010904/DTD/svg10.dtd">
<svg version="1.0" xmlns="http://www.w3.org/2000/svg"
 width="631.000000pt" height="395.000000pt" viewBox="0 0 631.000000 395.000000"
 preserveAspectRatio="xMidYMid meet">

<g transform="translate(0.000000,395.000000) scale(0.100000,-0.100000)"
fill="#000000" stroke="none">
<path d="M3550 3404 c0 -14 123 -389 130 -397 3 -4 84 -6 179 -5 l172 3 -144
200 -144 200 -97 3 c-53 1 -96 0 -96 -4z"/>
<path d="M2340 3203 l-141 -198 167 -3 c92 -1 168 -1 170 1 2 2 19 80 38 173
19 93 37 181 41 197 l7 27 -70 0 -71 0 -141 -197z"/>
<path d="M2972 3228 c-7 -95 -12 -185 -12 -200 l0 -28 155 0 155 0 -5 23 c-3
12 -14 87 -25 167 -11 80 -23 160 -26 178 l-6 32 -112 0 -112 0 -12 -172z"/>
<path d="M2190 2935 c0 -44 75 -128 126 -141 35 -9 100 1 129 20 32 21 72 75
80 109 l7 27 -171 0 c-148 0 -171 -2 -171 -15z"/>
<path d="M2580 2940 c0 -6 9 -27 19 -48 54 -105 165 -131 248 -59 33 29 63 80
63 107 0 6 -58 10 -165 10 -108 0 -165 -4 -165 -10z"/>
<path d="M2955 2928 c12 -41 55 -98 88 -118 69 -42 167 -13 212 63 45 78 47
77 -141 77 l-165 0 6 -22z"/>
<path d="M3336 2928 c25 -82 89 -138 156 -138 59 0 130 60 157 133 l11 27
-166 0 -165 0 7 -22z"/>
<path d="M3700 2940 c0 -6 9 -27 19 -48 76 -149 259 -132 320 31 l11 27 -175
0 c-115 0 -175 -4 -175 -10z"/>
<path d="M3981 2746 c-7 -8 -23 -17 -36 -20 l-25 -6 0 -290 0 -290 -802 2
-803 3 -3 281 c-2 257 -4 282 -20 287 -9 2 -25 8 -34 12 -17 7 -18 -13 -18
-334 l0 -341 380 0 380 0 0 -80 0 -80 -77 1 c-43 0 -86 -2 -95 -6 -24 -10 -29
-32 -12 -50 22 -22 575 -23 593 -1 9 11 10 20 1 35 -9 18 -21 21 -73 22 -123
2 -112 -6 -115 82 l-3 77 391 0 390 0 0 355 c0 195 -2 355 -4 355 -2 0 -9 -6
-15 -14z"/>
<path d="M3017 2479 c-20 -5 -58 -20 -85 -33 -78 -41 -77 -40 -56 -69 l19 -25
28 20 c39 28 130 58 175 58 52 0 125 -23 172 -54 l38 -25 17 25 c16 24 15 26
-2 40 -36 27 -107 56 -162 65 -66 10 -93 10 -144 -2z"/>
<path d="M2742 1544 c-19 -13 -22 -24 -22 -84 0 -94 9 -100 157 -100 l113 0 0
-35 0 -35 -113 0 c-116 0 -157 -12 -157 -46 0 -12 26 -14 149 -14 144 0 151 1
165 22 24 34 21 123 -4 148 -18 18 -33 20 -135 20 l-115 0 0 40 0 40 115 0
c102 0 117 2 135 20 11 11 20 25 20 30 0 6 -54 10 -143 10 -113 0 -147 -3
-165 -16z"/>
<path d="M3122 1544 c-21 -14 -22 -21 -22 -165 0 -123 2 -149 14 -149 8 0 22
10 30 22 13 18 16 52 16 165 0 79 -3 143 -8 143 -4 0 -18 -7 -30 -16z"/>
<path d="M3232 1537 c-32 -34 -31 -125 1 -155 21 -20 34 -22 135 -22 l112 0 0
-35 0 -35 -106 0 c-110 0 -136 -7 -154 -40 -10 -20 -7 -20 139 -20 142 0 151
1 171 22 30 32 28 117 -3 146 -21 20 -34 22 -135 22 l-112 0 0 40 0 40 113 0
c106 0 115 2 135 23 12 13 22 26 22 30 0 4 -67 7 -148 7 -142 0 -149 -1 -170
-23z"/>
<path d="M3590 1540 c-33 -33 -24 -40 55 -40 l75 0 0 -135 c0 -146 4 -155 51
-116 22 17 24 28 27 121 6 167 -8 190 -118 190 -57 0 -74 -4 -90 -20z"/>
<path d="M3820 1530 c0 -29 2 -30 45 -30 32 0 51 6 65 20 33 33 24 40 -45 40
l-65 0 0 -30z"/>
<path d="M4021 1542 c-21 -16 -22 -27 -24 -165 -2 -132 0 -147 15 -147 36 0
48 39 48 157 l0 113 115 0 c102 0 117 2 135 20 11 11 20 25 20 30 0 6 -55 10
-144 10 -122 0 -147 -3 -165 -18z"/>
<path d="M4396 1536 c-22 -21 -24 -29 -20 -111 4 -89 18 -125 51 -125 10 0 13
23 13 100 l0 101 68 -3 67 -3 3 -132 c2 -107 5 -133 17 -133 34 0 45 41 45
167 0 160 -2 163 -130 163 -82 0 -93 -2 -114 -24z"/>
<path d="M4660 1530 l0 -30 60 0 60 0 0 -100 c0 -60 4 -100 10 -100 6 0 19 9
31 21 19 19 21 30 17 116 -4 116 -10 123 -110 123 l-68 0 0 -30z"/>
<path d="M5055 1533 c-14 -15 -25 -31 -25 -36 0 -4 -31 -63 -70 -131 -38 -68
-70 -127 -70 -130 0 -3 13 -6 29 -6 36 0 55 24 131 163 29 53 57 97 61 97 7 0
18 -18 57 -95 23 -47 73 -95 99 -95 29 0 28 4 -7 65 -16 28 -41 73 -56 102
-15 29 -35 62 -46 73 -27 29 -72 26 -103 -7z"/>
<path d="M5365 1535 c-32 -31 -35 -110 -6 -146 18 -22 28 -24 138 -29 l118 -5
0 -30 0 -30 -118 -5 c-112 -5 -120 -6 -139 -30 l-20 -25 153 -3 c147 -3 155
-2 172 19 25 31 24 122 -3 149 -18 18 -33 20 -135 20 l-115 0 0 40 0 40 115 0
c102 0 117 2 135 20 11 11 20 25 20 30 0 6 -55 10 -145 10 -142 0 -147 -1
-170 -25z"/>
<path d="M4080 1390 c0 -29 2 -30 46 -30 55 0 84 14 84 40 0 18 -7 20 -65 20
l-65 0 0 -30z"/>
<path d="M5080 1400 c-31 -31 -24 -40 30 -40 28 0 50 2 50 5 0 15 -34 55 -46
55 -8 0 -23 -9 -34 -20z"/>
<path d="M4080 1260 l0 -30 125 0 c77 0 125 4 125 10 0 6 -9 19 -20 30 -17 17
-33 20 -125 20 l-105 0 0 -30z"/>
</g>
</svg>
